# xmcd CD database file
#
# Track frame offsets:
#	150
#	19202
#	37275
#	61287
#
# Disc length: 1052 seconds
#
# Revision: 0
# Processed by: cddbd v1.5PL3 Copyright (c) Steve Scherf et al.
# Submitted via: CDex 1.51
#
DISCID=33041a04
DTITLE=EUROPE - I'll Cry For You
DYEAR=1991
DGENRE=Hard Rock
TTITLE0=I'll Cry For You (Edit)
TTITLE1=I'll Cry For You (Acoustic Version)
TTITLE2=Sweet Love Child
TTITLE3=Long Time Comin'
EXTD=YEAR: 1991
EXTT0=
EXTT1=
EXTT2=
EXTT3=
PLAYORDER=
